<svg width="446" height="135" viewBox="0 0 446 135" fill="none" xmlns="http://www.w3.org/2000/svg">
<path d="M18.376 25.9005L40.8548 54.1986C42.0092 55.391 42.7142 56.9498 42.8463 58.6074C42.8634 59.1302 42.7493 59.6493 42.5165 60.1168C42.2838 60.5844 41.9407 60.9862 41.5143 61.2861C40.4725 62.0073 39.2246 62.3647 37.9609 62.304C37.4019 62.2863 36.8444 62.2388 36.2905 62.1609L0.196838 57.2696V77.372L36.2905 72.4271C36.8443 72.3483 37.4019 72.3007 37.9609 72.2844C39.2295 72.2269 40.4799 72.597 41.5143 73.3368C41.9387 73.6425 42.2799 74.0481 42.5122 74.518C42.7445 74.988 42.86 75.5082 42.8463 76.0327C42.7347 77.666 42.057 79.2082 40.9286 80.3893L18.3066 109.097L36.5378 119.131L50.1138 85.5664C50.5206 84.3131 51.2391 83.184 52.1963 82.2821C52.5383 81.9168 52.9483 81.6256 53.4068 81.4266C53.8652 81.2277 54.3608 81.1248 54.86 81.1248C55.3597 81.1248 55.8553 81.2277 56.3138 81.4266C56.7722 81.6256 57.1817 81.9168 57.5242 82.2821C58.4665 83.1926 59.1777 84.3194 59.5895 85.5664L73.0568 119.131L91.6132 109.097L68.7744 80.3893C67.6174 79.1701 66.9134 77.5878 66.783 75.9085C66.7735 75.4011 66.8867 74.8979 67.1128 74.444C67.3384 73.99 67.6704 73.5977 68.08 73.301C69.1577 72.5703 70.4438 72.2142 71.7421 72.2844C72.3379 72.2708 72.9349 72.3184 73.5207 72.4271L109.419 77.372V57.2696L73.5207 62.1609C72.8819 62.2759 72.2305 62.3235 71.5813 62.304C70.3292 62.3783 69.0856 62.0535 68.0283 61.3753C67.6247 61.0858 67.2967 60.7021 67.0738 60.2573C66.8505 59.8124 66.7395 59.32 66.7481 58.8221C66.9021 57.1034 67.6075 55.4816 68.7572 54.1986L91.505 25.9005L73.0219 15.5097L59.4808 49.0392C59.059 50.281 58.3532 51.4053 57.42 52.3232C57.0776 52.6887 56.6635 52.98 56.205 53.1789C55.7466 53.3778 55.251 53.4806 54.7518 53.4806C54.2521 53.4806 53.761 53.3778 53.3026 53.1789C52.8441 52.98 52.4301 52.6887 52.0876 52.3232C51.1476 51.3972 50.4178 50.2769 49.953 49.0392L36.3772 15.5097L18.376 25.9005Z" fill="white"/>
<path d="M131.573 107.32V26.8674H163.314C169.416 26.8674 174.615 28.0328 178.91 30.3637C183.205 32.6683 186.479 35.8765 188.731 39.9881C191.009 44.0736 192.148 48.7877 192.148 54.1302C192.148 59.4728 190.996 64.1868 188.692 68.2723C186.387 72.3578 183.048 75.5398 178.674 77.8183C174.327 80.0967 169.063 81.2359 162.882 81.2359H142.651V67.6045H160.132C163.406 67.6045 166.103 67.0415 168.225 65.9153C170.372 64.763 171.97 63.1786 173.017 61.162C174.091 59.1193 174.628 56.7753 174.628 54.1302C174.628 51.459 174.091 49.1281 173.017 47.1378C171.97 45.1212 170.372 43.563 168.225 42.463C166.077 41.3369 163.354 40.7738 160.054 40.7738H148.583V107.32H131.573ZM202.883 107.32V46.9806H219.107V57.5086H219.735C220.835 53.7636 222.682 50.9352 225.274 49.0234C227.867 47.0854 230.853 46.1164 234.231 46.1164C235.069 46.1164 235.973 46.1688 236.942 46.2735C237.911 46.3783 238.762 46.5223 239.495 46.7056V61.5548C238.709 61.3191 237.623 61.1096 236.234 60.9263C234.846 60.743 233.576 60.6513 232.424 60.6513C229.962 60.6513 227.762 61.1882 225.824 62.262C223.913 63.3095 222.394 64.7761 221.267 66.6617C220.168 68.5473 219.618 70.721 219.618 73.1828V107.32H202.883ZM286.842 81.6288V46.9806H303.576V107.32H287.509V96.3601H286.881C285.519 99.8956 283.254 102.737 280.085 104.885C276.942 107.032 273.105 108.106 268.575 108.106C264.542 108.106 260.993 107.189 257.929 105.356C254.865 103.523 252.468 100.917 250.74 97.5386C249.038 94.1602 248.173 90.114 248.147 85.4V46.9806H264.882V82.4144C264.908 85.9762 265.864 88.7915 267.75 90.8604C269.635 92.9294 272.163 93.9638 275.332 93.9638C277.348 93.9638 279.234 93.5055 280.988 92.5889C282.743 91.6461 284.157 90.2581 285.231 88.4248C286.331 86.5916 286.868 84.3262 286.842 81.6288ZM333.697 72.4364V107.32H316.962V46.9806H332.911V57.6265H333.619C334.954 54.1171 337.193 51.3411 340.336 49.2984C343.479 47.2294 347.289 46.195 351.768 46.195C355.958 46.195 359.611 47.1116 362.728 48.9448C365.844 50.778 368.267 53.3969 369.995 56.8015C371.724 60.1799 372.588 64.213 372.588 68.9009V107.32H355.853V71.8864C355.879 68.1938 354.936 65.313 353.025 63.244C351.113 61.1489 348.481 60.1014 345.129 60.1014C342.876 60.1014 340.886 60.5859 339.158 61.5548C337.455 62.5238 336.12 63.9381 335.151 65.7975C334.208 67.6307 333.723 69.8437 333.697 72.4364ZM413.276 108.499C407.069 108.499 401.727 107.242 397.248 104.728C392.796 102.187 389.365 98.5993 386.956 93.9638C384.546 89.3022 383.342 83.7894 383.342 77.4254C383.342 71.2186 384.546 65.7713 386.956 61.0834C389.365 56.3956 392.757 52.7422 397.13 50.1233C401.53 47.5044 406.689 46.195 412.608 46.195C416.589 46.195 420.295 46.8366 423.725 48.1199C427.182 49.3769 430.194 51.2756 432.761 53.816C435.353 56.3563 437.37 59.5514 438.81 63.4012C440.251 67.2248 440.971 71.7031 440.971 76.8362V81.4324H390.02V71.0615H425.218C425.218 68.6521 424.694 66.5177 423.647 64.6583C422.599 62.7988 421.146 61.3453 419.286 60.2978C417.453 59.224 415.319 58.6871 412.883 58.6871C410.343 58.6871 408.09 59.2764 406.126 60.4549C404.188 61.6072 402.669 63.1655 401.569 65.1297C400.469 67.0676 399.906 69.2282 399.88 71.6114V81.4716C399.88 84.4572 400.43 87.0368 401.53 89.2105C402.656 91.3842 404.241 93.0603 406.283 94.2388C408.326 95.4173 410.749 96.0066 413.551 96.0066C415.41 96.0066 417.113 95.7447 418.658 95.2209C420.203 94.6971 421.525 93.9114 422.625 92.8639C423.725 91.8163 424.563 90.5331 425.14 89.0141L440.617 90.0355C439.832 93.7543 438.221 97.0018 435.785 99.7778C433.376 102.528 430.26 104.675 426.436 106.22C422.639 107.739 418.252 108.499 413.276 108.499Z" fill="white"/>
</svg>
