<svg width="103" height="98" viewBox="0 0 103 98" fill="none" xmlns="http://www.w3.org/2000/svg">
<path d="M16.9979 9.94375L38.0161 36.4031C39.0955 37.518 39.7547 38.9755 39.8782 40.5254C39.8942 41.0142 39.7875 41.4997 39.5699 41.9368C39.3523 42.3739 39.0315 42.7496 38.6328 43.0301C37.6586 43.7044 36.4919 44.0386 35.3103 43.9818C34.7876 43.9653 34.2663 43.9208 33.7484 43.848L0 39.2746V58.0707L33.7484 53.4472C34.2662 53.3735 34.7876 53.329 35.3103 53.3137C36.4964 53.26 37.6655 53.606 38.6328 54.2977C39.0296 54.5836 39.3486 54.9629 39.5659 55.4023C39.7831 55.8417 39.8911 56.3281 39.8782 56.8185C39.7739 58.3456 39.1402 59.7877 38.0851 60.892L16.933 87.7344L33.9796 97.1162L46.6735 65.7327C47.0539 64.5609 47.7257 63.5051 48.6207 62.6618C48.9405 62.3202 49.3238 62.048 49.7525 61.8619C50.1812 61.6759 50.6446 61.5797 51.1113 61.5797C51.5786 61.5797 52.042 61.6759 52.4706 61.8619C52.8993 62.048 53.2822 62.3202 53.6024 62.6618C54.4835 63.5132 55.1485 64.5668 55.5335 65.7327L68.1257 97.1162L85.4764 87.7344L64.1216 60.892C63.0398 59.752 62.3816 58.2726 62.2596 56.7023C62.2507 56.2279 62.3566 55.7574 62.5679 55.333C62.7789 54.9085 63.0894 54.5417 63.4723 54.2643C64.48 53.581 65.6825 53.2481 66.8965 53.3137C67.4535 53.301 68.0118 53.3455 68.5595 53.4472L102.126 58.0707V39.2746L68.5595 43.848C67.9622 43.9556 67.3531 44.0001 66.7461 43.9818C65.5754 44.0513 64.4126 43.7476 63.424 43.1135C63.0466 42.8428 62.7399 42.4841 62.5315 42.0681C62.3227 41.6521 62.2189 41.1917 62.2269 40.7262C62.371 39.1191 63.0305 37.6027 64.1055 36.4031L85.3752 9.94375L68.0931 0.22809L55.4319 31.579C55.0375 32.74 54.3776 33.7913 53.505 34.6495C53.1848 34.9913 52.7976 35.2637 52.369 35.4497C51.9403 35.6356 51.4769 35.7318 51.0101 35.7318C50.5429 35.7318 50.0837 35.6356 49.6551 35.4497C49.2264 35.2637 48.8393 34.9913 48.519 34.6495C47.6401 33.7837 46.9577 32.7362 46.5231 31.579L33.8295 0.22809L16.9979 9.94375Z" fill="#C11574"/>
</svg>
