<svg width="394" height="126" viewBox="0 0 394 126" fill="none" xmlns="http://www.w3.org/2000/svg">
<path d="M13.2382 32.5661L29.6074 53.173C30.448 54.0413 30.9614 55.1764 31.0576 56.3835C31.0701 56.7642 30.987 57.1422 30.8175 57.4827C30.648 57.8231 30.3982 58.1157 30.0877 58.3341C29.329 58.8593 28.4203 59.1196 27.5 59.0754C27.093 59.0625 26.687 59.0279 26.2836 58.9711L0 55.4093V70.048L26.2836 66.4471C26.6869 66.3897 27.093 66.355 27.5 66.3432C28.4238 66.3013 29.3344 66.5708 30.0877 67.1095C30.3967 67.3322 30.6451 67.6275 30.8143 67.9697C30.9835 68.3119 31.0676 68.6908 31.0576 69.0727C30.9764 70.2621 30.4828 71.3851 29.6611 72.2452L13.1876 93.1503L26.4637 100.457L36.3499 76.0152C36.6461 75.1026 37.1693 74.2803 37.8664 73.6235C38.1154 73.3575 38.414 73.1455 38.7478 73.0006C39.0817 72.8557 39.4426 72.7808 39.8061 72.7808C40.17 72.7808 40.5309 72.8557 40.8647 73.0006C41.1986 73.1455 41.4968 73.3575 41.7462 73.6235C42.4324 74.2866 42.9503 75.1071 43.2501 76.0152L53.0571 100.457L66.57 93.1503L49.9387 72.2452C49.0961 71.3574 48.5835 70.2052 48.4885 68.9823C48.4815 68.6127 48.564 68.2463 48.7286 67.9158C48.8929 67.5852 49.1347 67.2995 49.4329 67.0834C50.2177 66.5513 51.1543 66.292 52.0998 66.3432C52.5336 66.3333 52.9684 66.3679 53.3949 66.4471L79.5367 70.048V55.4093L53.3949 58.9711C52.9298 59.0549 52.4554 59.0896 51.9827 59.0754C51.0708 59.1295 50.1653 58.8929 49.3953 58.3991C49.1014 58.1883 48.8626 57.9089 48.7003 57.5849C48.5376 57.261 48.4568 56.9024 48.4631 56.5398C48.5752 55.2882 49.0889 54.1072 49.9261 53.173L66.4912 32.5661L53.0317 24.9995L43.171 49.4159C42.8638 50.3201 42.3499 51.1389 41.6703 51.8073C41.4209 52.0735 41.1194 52.2856 40.7855 52.4304C40.4517 52.5752 40.0908 52.6501 39.7273 52.6501C39.3634 52.6501 39.0058 52.5752 38.6719 52.4304C38.3381 52.2856 38.0366 52.0735 37.7872 51.8073C37.1027 51.133 36.5712 50.3171 36.2327 49.4159L26.3468 24.9995L13.2382 32.5661Z" fill="black"/>
<path d="M100.251 100.229V25.0033H129.93C135.635 25.0033 140.496 26.093 144.512 28.2723C148.528 30.4272 151.589 33.4269 153.695 37.2714C155.825 41.0915 156.89 45.4992 156.89 50.4946C156.89 55.4901 155.813 59.8978 153.658 63.7178C151.503 67.5379 148.381 70.5131 144.292 72.6435C140.227 74.7739 135.305 75.8391 129.526 75.8391H110.609V63.0934H126.955C130.015 63.0934 132.538 62.5669 134.521 61.514C136.529 60.4365 138.023 58.955 139.002 57.0695C140.006 55.1595 140.508 52.9679 140.508 50.4946C140.508 47.9969 140.006 45.8175 139.002 43.9565C138.023 42.071 136.529 40.614 134.521 39.5855C132.513 38.5326 129.966 38.0061 126.881 38.0061H116.156V100.229H100.251ZM166.927 100.229V43.8096H182.097V53.6535H182.685C183.713 50.1518 185.44 47.5072 187.864 45.7196C190.288 43.9075 193.08 43.0015 196.239 43.0015C197.022 43.0015 197.867 43.0505 198.773 43.1484C199.679 43.2464 200.475 43.3811 201.16 43.5525V57.4368C200.426 57.2164 199.41 57.0205 198.112 56.8491C196.814 56.6777 195.626 56.592 194.549 56.592C192.247 56.592 190.19 57.094 188.378 58.098C186.59 59.0775 185.17 60.4488 184.117 62.2119C183.089 63.9749 182.575 66.0074 182.575 68.3092V100.229H166.927ZM245.431 76.2064V43.8096H261.078V100.229H246.055V89.9805H245.467C244.194 93.2863 242.076 95.9432 239.113 97.9512C236.174 99.9592 232.587 100.963 228.351 100.963C224.58 100.963 221.262 100.106 218.397 98.392C215.531 96.6778 213.291 94.2414 211.675 91.0825C210.083 87.9236 209.275 84.1403 209.25 79.7326V43.8096H224.898V76.941C224.922 80.2713 225.816 82.9037 227.579 84.8382C229.342 86.7727 231.705 87.7399 234.668 87.7399C236.554 87.7399 238.317 87.3114 239.958 86.4544C241.598 85.5728 242.921 84.275 243.925 82.5609C244.953 80.8468 245.455 78.7286 245.431 76.2064ZM289.242 67.6113V100.229H273.594V43.8096H288.507V53.7637H289.168C290.417 50.4824 292.511 47.8867 295.449 45.9767C298.388 44.0422 301.951 43.075 306.138 43.075C310.056 43.075 313.472 43.932 316.386 45.6461C319.3 47.3603 321.565 49.809 323.181 52.9924C324.797 56.1512 325.605 59.9223 325.605 64.3055V100.229H309.958V67.0971C309.982 63.6444 309.101 60.9508 307.313 59.0162C305.526 57.0573 303.065 56.0778 299.93 56.0778C297.824 56.0778 295.963 56.5308 294.347 57.4368C292.756 58.3428 291.507 59.6652 290.601 61.4038C289.719 63.1179 289.266 65.1871 289.242 67.6113ZM363.65 101.33C357.846 101.33 352.851 100.155 348.663 97.8043C344.5 95.429 341.293 92.0742 339.04 87.7399C336.787 83.3812 335.66 78.2266 335.66 72.2762C335.66 66.4727 336.787 61.3793 339.04 56.996C341.293 52.6128 344.464 49.1968 348.553 46.7481C352.667 44.2993 357.491 43.075 363.025 43.075C366.747 43.075 370.212 43.6749 373.42 44.8748C376.652 46.0502 379.468 47.8255 381.868 50.2008C384.292 52.5761 386.178 55.5635 387.525 59.1632C388.872 62.7383 389.545 66.9257 389.545 71.7252V76.0227H341.905V66.3257H374.816C374.816 64.0729 374.326 62.0772 373.347 60.3386C372.367 58.6 371.008 57.2409 369.269 56.2614C367.555 55.2574 365.56 54.7554 363.282 54.7554C360.907 54.7554 358.801 55.3064 356.964 56.4083C355.152 57.4858 353.732 58.9428 352.704 60.7793C351.675 62.5914 351.149 64.6116 351.124 66.84V76.0595C351.124 78.851 351.638 81.263 352.667 83.2955C353.72 85.3279 355.201 86.8951 357.111 87.9971C359.021 89.099 361.287 89.65 363.907 89.65C365.645 89.65 367.237 89.4051 368.682 88.9153C370.126 88.4256 371.363 87.691 372.392 86.7115C373.42 85.732 374.204 84.5321 374.742 83.1118L389.214 84.0668C388.48 87.5441 386.974 90.5805 384.696 93.1761C382.444 95.7473 379.53 97.7553 375.954 99.2C372.404 100.62 368.302 101.33 363.65 101.33Z" fill="black"/>
</svg>
